<?xml version="1.0" encoding="utf-8"?>
<svg width="50" height="50" viewBox="0 0 50 50" fill="none" xmlns="http://www.w3.org/2000/svg">
  <g>
    <path d="M21.0621 0.000639796C20.8709 -0.00620031 20.6818 0.0419259 20.5172 0.139312C20.5172 0.139312 12.65 4.79947 12.65 4.79947C12.2864 4.94804 12.0435 5.29566 12.0289 5.68814C12.028 5.69985 12.0274 5.71157 12.0269 5.7233C12.0269 5.72786 12.0269 5.73241 12.0269 5.73697C12.0269 5.73697 12.0269 8.05533 12.0269 8.05533C12.0269 8.05533 9.98981 6.86783 9.98981 6.86783C9.67843 6.68619 9.29339 6.68619 8.982 6.86783C8.982 6.86783 0.523017 11.8034 0.523017 11.8034C0.507125 11.8127 0.491493 11.8225 0.476141 11.8327C0.108705 12.0587 -0.0723794 12.4949 0.0269232 12.9147C0.0269232 12.9147 0.0269232 22.7624 0.0269232 22.7624C0.0270963 23.1178 0.215949 23.4465 0.522977 23.6256C0.522977 23.6256 2.02106 24.5006 2.02106 24.5006L0.571845 25.3463C0.571845 25.3463 0.523017 25.3737 0.523017 25.3737C0.521059 25.375 0.519106 25.3763 0.517157 25.3776C0.499239 25.3881 0.481653 25.3992 0.464424 25.4108C0.444411 25.4238 0.424867 25.4374 0.405832 25.4518C0.405164 25.4525 0.404498 25.4531 0.403832 25.4538C0.11597 25.6763 -0.0283704 26.0375 0.0269232 26.3971C0.0269232 26.3971 0.0269232 36.0006 0.0269232 36.0006C0.0270963 36.3561 0.215949 36.6847 0.522977 36.8639C0.522977 36.8639 8.3863 41.4499 8.3863 41.4499C8.69718 41.7016 9.12815 41.7438 9.482 41.5573C9.49853 41.5486 9.51481 41.5395 9.53083 41.5299C9.53083 41.5299 11.0269 40.6569 11.0269 40.6569C11.0269 40.6569 11.0269 42.4167 11.0269 42.4167C11.0271 42.7721 11.2159 43.1008 11.523 43.2799C11.523 43.2799 20.484 48.5085 20.484 48.5085C20.484 48.5085 20.4859 48.5085 20.4859 48.5085C20.4879 48.5098 20.4898 48.5111 20.4918 48.5124C20.4918 48.5124 20.523 48.5299 20.523 48.5299C20.5359 48.5374 20.5489 48.5445 20.5621 48.5514C20.5673 48.5541 20.5725 48.5567 20.5777 48.5592C20.6064 48.5737 20.6357 48.5867 20.6656 48.5983C20.6963 48.6103 20.7276 48.6207 20.7593 48.6295C20.7826 48.6363 20.806 48.6421 20.8297 48.6471C20.8484 48.6509 20.8673 48.6542 20.8863 48.6569C20.898 48.6584 20.9097 48.6597 20.9215 48.6608C20.9409 48.6627 20.9605 48.664 20.98 48.6647C20.9957 48.6657 21.0113 48.6664 21.0269 48.6667C21.0432 48.6664 21.0595 48.6657 21.0758 48.6647C21.0914 48.6638 21.107 48.6625 21.1226 48.6608C21.1481 48.6585 21.1735 48.6553 21.1988 48.651C21.2264 48.6463 21.2537 48.6405 21.2808 48.6335C21.2979 48.6287 21.3148 48.6235 21.3316 48.6178C21.3381 48.6159 21.3447 48.614 21.3511 48.612C21.3709 48.6048 21.3905 48.597 21.4097 48.5885C21.4289 48.5807 21.4478 48.5722 21.4664 48.5631C21.4795 48.5569 21.4926 48.5504 21.5054 48.5436C21.514 48.5392 21.5224 48.5346 21.5308 48.5299C21.5308 48.5299 30.5308 43.2799 30.5308 43.2799C30.8379 43.1008 31.0267 42.7721 31.0269 42.4167C31.0269 42.4167 31.0269 40.6569 31.0269 40.6569L32.4879 41.5084C32.4879 41.5084 32.523 41.5299 32.523 41.5299C32.5397 41.5395 32.5566 41.5487 32.5738 41.5573C32.9559 41.7674 33.43 41.7057 33.7457 41.4049C33.7457 41.4049 41.5308 36.8639 41.5308 36.8639C41.8379 36.6848 42.0267 36.3561 42.0269 36.0006C42.0269 36.0006 42.0269 26.4889 42.0269 26.4889C42.13 26.0632 41.944 25.6199 41.5679 25.3952C41.5673 25.3952 41.5666 25.3952 41.566 25.3952C41.5544 25.3878 41.5427 25.3806 41.5308 25.3737C41.5308 25.3737 40.0328 24.4987 40.0328 24.4987C40.0328 24.4987 41.5308 23.6256 41.5308 23.6256C41.8379 23.4465 42.0267 23.1178 42.0269 22.7624C42.0269 22.7624 42.0269 12.9186 42.0269 12.9186C42.13 12.4929 41.944 12.0496 41.5679 11.8249C41.5673 11.8249 41.5666 11.8249 41.566 11.8249C41.5544 11.8175 41.5427 11.8103 41.5308 11.8034C41.5308 11.8034 33.0718 6.86783 33.0718 6.86783C32.9268 6.78366 32.7629 6.73732 32.5953 6.73306C32.4091 6.72764 32.2251 6.77431 32.064 6.86783C32.064 6.86783 30.0269 8.05533 30.0269 8.05533C30.0269 8.05533 30.0269 5.73697 30.0269 5.73697C30.0267 5.72068 30.026 5.7044 30.025 5.68814C30.025 5.68684 30.025 5.68554 30.025 5.68423C30.025 5.68358 30.025 5.68293 30.025 5.68228C30.0233 5.64959 30.0201 5.617 30.0152 5.58462C30.0103 5.55177 30.0038 5.51917 29.9957 5.48697C29.9198 5.17521 29.699 4.91878 29.4019 4.79751C29.4012 4.79751 29.4005 4.79751 29.3998 4.79751C29.3998 4.79751 21.5367 0.139312 21.5367 0.139312C21.3926 0.0540917 21.2294 0.00641054 21.0621 0.000639737C21.0621 0.000639737 21.0621 0.000639796 21.0621 0.000639796ZM21.0269 2.16275L27.0465 5.7272L21.0269 9.20572L15.0074 5.7272L21.0269 2.16275L21.0269 2.16275ZM14.0269 7.47134L20.0269 10.9381L20.0269 13.8561L18.5484 14.6237C18.5484 14.6237 18.5484 12.4342 18.5484 12.4342C18.5482 12.4173 18.5475 12.4004 18.5465 12.3834C18.5465 12.3815 18.5465 12.3795 18.5465 12.3776C18.5465 12.3763 18.5465 12.375 18.5465 12.3737C18.528 11.9793 18.2794 11.6327 17.9117 11.4889C17.9117 11.4889 14.0269 9.2233 14.0269 9.2233L14.0269 7.47134L14.0269 7.47134ZM28.0269 7.47134L28.0269 9.2233C28.0269 9.2233 24.1383 11.4909 24.1383 11.4909C23.7727 11.6356 23.5259 11.981 23.5074 12.3737C23.5045 12.4127 23.5038 12.4518 23.5054 12.4909C23.5054 12.4909 23.5054 14.6237 23.5054 14.6237L22.0269 13.8561L22.0269 10.9381L28.0269 7.47134L28.0269 7.47134ZM9.48591 8.88931L15.564 12.4342L9.03278 16.2448L3.00153 12.6725L9.48591 8.88931L9.48591 8.88931ZM32.5679 8.88931L39.0523 12.6725L33.0211 16.2448L26.4898 12.4342L32.5679 8.88931L32.5679 8.88931ZM16.5484 14.1764L16.5484 15.6627L11.5679 18.2487C11.5679 18.2487 11.566 18.2487 11.566 18.2487C11.4776 18.295 11.3966 18.3542 11.3258 18.4245C11.3137 18.4372 11.302 18.4502 11.2906 18.4635C11.2793 18.4743 11.2682 18.4854 11.2574 18.4967C11.2574 18.4974 11.2574 18.498 11.2574 18.4987C11.2366 18.5238 11.217 18.5498 11.1988 18.5768C11.1914 18.5884 11.1842 18.6001 11.1773 18.612C11.1664 18.6286 11.156 18.6455 11.1461 18.6627C11.1461 18.6634 11.1461 18.6641 11.1461 18.6647C11.1303 18.6933 11.116 18.7226 11.1031 18.7526C11.1031 18.7532 11.1031 18.7539 11.1031 18.7545C11.0905 18.7846 11.0795 18.8152 11.0699 18.8463C11.0699 18.847 11.0699 18.8476 11.0699 18.8483C11.0678 18.8561 11.0659 18.8639 11.064 18.8717C11.048 18.9279 11.0369 18.9855 11.0308 19.0436C11.0281 19.0748 11.0268 19.1061 11.0269 19.1374C11.0269 19.14 11.0269 19.1426 11.0269 19.1452C11.0269 19.1452 11.0269 25.1042 11.0269 25.1042L10.0269 25.6881L10.0269 17.9792L16.5484 14.1764L16.5484 14.1764ZM25.5054 14.1764L32.0269 17.9792L32.0269 25.6881L31.0269 25.1042C31.0269 25.1042 31.0269 19.1842 31.0269 19.1842C31.0273 19.1686 31.0273 19.153 31.0269 19.1374C31.0264 19.1295 31.0257 19.1217 31.025 19.1139C31.0249 19.0944 31.0242 19.0748 31.023 19.0553C31.0224 19.0494 31.0218 19.0436 31.0211 19.0378C31.0205 19.0319 31.0198 19.026 31.0191 19.0202C31.017 19.0012 31.0144 18.9823 31.0113 18.9635C31.0084 18.9472 31.0052 18.9309 31.0015 18.9147C30.9959 18.891 30.9894 18.8676 30.982 18.8444C30.982 18.8437 30.982 18.8431 30.982 18.8424C30.982 18.8418 30.982 18.8411 30.982 18.8405C30.9734 18.8127 30.9637 18.7854 30.9527 18.7584C30.9514 18.7552 30.9501 18.7519 30.9488 18.7487C30.9421 18.7322 30.9349 18.7159 30.9273 18.6999C30.9248 18.6946 30.9222 18.6894 30.9195 18.6842C30.9085 18.6637 30.8968 18.6435 30.8843 18.6237C30.8824 18.6198 30.8805 18.6159 30.8785 18.612C30.8703 18.5988 30.8619 18.5857 30.8531 18.5729C30.8431 18.5583 30.8326 18.544 30.8218 18.5299C30.818 18.5253 30.8141 18.5208 30.8101 18.5163C30.7982 18.5009 30.7858 18.486 30.773 18.4713C30.7679 18.4654 30.7627 18.4596 30.7574 18.4538C30.7466 18.4424 30.7355 18.4314 30.7242 18.4206C30.7203 18.4173 30.7164 18.414 30.7125 18.4108C30.6961 18.3952 30.6791 18.3803 30.6617 18.3659C30.6578 18.3619 30.6539 18.358 30.65 18.3542C30.6454 18.3509 30.6409 18.3476 30.6363 18.3444C30.6173 18.33 30.5977 18.3163 30.5777 18.3034C30.5745 18.3007 30.5712 18.2981 30.5679 18.2956C30.5532 18.286 30.5382 18.2769 30.523 18.2682C30.5114 18.2615 30.4997 18.255 30.4879 18.2487C30.4879 18.2487 30.482 18.2448 30.482 18.2448C30.4781 18.2428 30.4742 18.2409 30.4703 18.2389C30.4703 18.2389 25.5054 15.6627 25.5054 15.6627L25.5054 14.1764L25.5054 14.1764ZM2.02692 14.4225L8.02692 17.9733L8.02692 25.6881L2.02692 22.1881L2.02692 14.4225L2.02692 14.4225ZM40.0269 14.4225L40.0269 22.1881L34.0269 25.6881L34.0269 17.9733L40.0269 14.4225L40.0269 14.4225ZM21.0269 15.5905L27.9468 19.1823L21.0269 23.1784L14.107 19.1823L21.0269 15.5905L21.0269 15.5905ZM13.0269 20.8678L20.0269 24.9088L20.0269 32.6881L13.0269 28.6061L13.0269 20.8678L13.0269 20.8678ZM29.0269 20.8678L29.0269 28.6061L22.0269 32.6881L22.0269 24.9088L29.0269 20.8678L29.0269 20.8678ZM4.00349 25.6569C4.00349 25.6569 8.52302 28.2936 8.52302 28.2936C8.5422 28.3047 8.56174 28.3151 8.58161 28.3249C8.59384 28.3316 8.60622 28.3381 8.61872 28.3444C8.62068 28.345 8.62263 28.3457 8.62459 28.3463C8.65085 28.3572 8.67757 28.367 8.70466 28.3756C8.75057 28.3914 8.79757 28.4038 8.84528 28.4127C8.89939 28.4231 8.95427 28.429 9.00935 28.4303C9.01063 28.4303 9.01191 28.4303 9.01319 28.4303C9.0419 28.4303 9.07059 28.429 9.09919 28.4264C9.13257 28.4242 9.16581 28.4203 9.1988 28.4147C9.22108 28.4109 9.24323 28.4063 9.2652 28.401C9.27566 28.3986 9.28608 28.396 9.29645 28.3932C9.30102 28.3919 9.30558 28.3906 9.31012 28.3893C9.33719 28.3813 9.36391 28.3722 9.3902 28.362C9.39478 28.36 9.39934 28.3581 9.40388 28.3561C9.40648 28.3548 9.40908 28.3535 9.41167 28.3522C9.4396 28.3404 9.46698 28.3274 9.49372 28.3131C9.4983 28.3106 9.50285 28.308 9.50739 28.3053C9.51525 28.3015 9.52306 28.2976 9.53082 28.2936C9.53082 28.2936 11.0269 27.4206 11.0269 27.4206L11.0269 28.5788L9.02692 29.7448L3.00935 26.237L4.00349 25.6569L4.00349 25.6569ZM38.0504 25.6569L39.0445 26.237L33.0269 29.7448L31.0269 28.5788L31.0269 27.4206L32.4879 28.2721C32.4879 28.2721 32.523 28.2936 32.523 28.2936C32.5371 28.3018 32.5515 28.3096 32.566 28.317C32.5699 28.319 32.5738 28.321 32.5777 28.3229C32.602 28.335 32.6267 28.3461 32.6519 28.3561C32.6642 28.3609 32.6766 28.3655 32.689 28.3698C32.6987 28.3732 32.7085 28.3764 32.7183 28.3795C32.7415 28.3869 32.765 28.3934 32.7886 28.3991C32.8029 28.4026 32.8172 28.4059 32.8316 28.4088C32.84 28.4109 32.8485 28.4129 32.857 28.4147C32.8596 28.4147 32.8622 28.4147 32.8648 28.4147C32.8952 28.42 32.9258 28.4239 32.9566 28.4264C32.9885 28.4286 33.0204 28.4293 33.0523 28.4284C33.0536 28.4284 33.0549 28.4284 33.0562 28.4284C33.0582 28.4284 33.0601 28.4284 33.0621 28.4284C33.0869 28.4273 33.1116 28.4254 33.1363 28.4225C33.1428 28.4219 33.1493 28.4213 33.1558 28.4206C33.1604 28.4199 33.165 28.4193 33.1695 28.4186C33.1924 28.4155 33.2152 28.4116 33.2379 28.4069C33.2477 28.4044 33.2574 28.4018 33.2672 28.3991C33.2908 28.3934 33.3143 28.3869 33.3375 28.3795C33.3453 28.377 33.3531 28.3744 33.3609 28.3717C33.388 28.3625 33.4148 28.352 33.441 28.3405C33.4416 28.3398 33.4423 28.3392 33.4429 28.3386C33.4436 28.3379 33.4442 28.3372 33.4449 28.3366C33.4674 28.3263 33.4896 28.3153 33.5113 28.3034C33.5178 28.3002 33.5244 28.2969 33.5308 28.2936C33.5308 28.2936 38.0504 25.6569 38.0504 25.6569L38.0504 25.6569ZM2.02692 27.9772L8.02692 31.4772L8.02692 38.9264L2.02692 35.4245L2.02692 27.9772L2.02692 27.9772ZM40.0269 27.9772L40.0269 35.4245L34.0269 38.9264L34.0269 31.4772L40.0269 27.9772L40.0269 27.9772ZM12.0035 30.3249L13.0191 30.9167L11.5718 31.7624C11.5718 31.7624 11.523 31.7897 11.523 31.7897C11.5105 31.7972 11.4981 31.8051 11.4859 31.8131C11.1131 32.0369 10.9276 32.4758 11.0269 32.8991C11.0269 32.8991 11.0269 38.3405 11.0269 38.3405L10.0269 38.9245L10.0269 31.4772L12.0035 30.3249L12.0035 30.3249ZM30.0504 30.3249L32.0269 31.4772L32.0269 38.9245L31.0269 38.3424C31.0269 38.3424 31.0269 32.9049 31.0269 32.9049C31.1296 32.4787 30.9427 32.0353 30.566 31.8112C30.5544 31.8038 30.5427 31.7966 30.5308 31.7897C30.5308 31.7897 29.0347 30.9167 29.0347 30.9167L30.0504 30.3249L30.0504 30.3249ZM15.0035 32.0749L20.484 35.2721C20.484 35.2721 20.4859 35.2721 20.4859 35.2721C20.4879 35.2734 20.4898 35.2747 20.4918 35.276C20.4918 35.276 20.523 35.2936 20.523 35.2936C20.5466 35.307 20.5707 35.3193 20.5953 35.3307C20.6069 35.3362 20.6186 35.3414 20.6304 35.3463C20.6516 35.3555 20.6731 35.364 20.6949 35.3717C20.6981 35.3731 20.7014 35.3744 20.7047 35.3756C20.7092 35.377 20.7138 35.3783 20.7183 35.3795C20.7415 35.3869 20.765 35.3934 20.7886 35.3991C20.7984 35.4018 20.8081 35.4044 20.8179 35.4069C20.8406 35.4116 20.8634 35.4155 20.8863 35.4186C20.898 35.4201 20.9097 35.4214 20.9215 35.4225C20.9409 35.4244 20.9605 35.4257 20.98 35.4264C20.9957 35.4274 21.0113 35.4281 21.0269 35.4284C21.0432 35.4281 21.0595 35.4275 21.0758 35.4264C21.096 35.4257 21.1162 35.4244 21.1363 35.4225C21.1474 35.4214 21.1585 35.4201 21.1695 35.4186C21.1951 35.415 21.2205 35.4105 21.2457 35.4049C21.2502 35.4037 21.2548 35.4024 21.2593 35.401C21.2863 35.395 21.313 35.3878 21.3394 35.3795C21.3466 35.377 21.3538 35.3744 21.3609 35.3717C21.388 35.3625 21.4148 35.352 21.441 35.3405C21.4423 35.3392 21.4436 35.3379 21.4449 35.3366C21.4674 35.3263 21.4896 35.3153 21.5113 35.3034C21.5178 35.3002 21.5244 35.2969 21.5308 35.2936C21.5308 35.2936 27.0504 32.0749 27.0504 32.0749L28.0425 32.653L21.0269 36.7467L14.0113 32.653L15.0035 32.0749L15.0035 32.0749ZM13.0269 34.3932L20.0269 38.4772L20.0269 45.9264L13.0269 41.8424L13.0269 34.3932L13.0269 34.3932ZM29.0269 34.3932L29.0269 41.8424L22.0269 45.9264L22.0269 38.4772L29.0269 34.3932L29.0269 34.3932Z" fill="#000000" transform="translate(3.973 0.71)" />
  </g>
</svg>